# xmcd
#
# Track frame offsets:
#       150
#       19156
#       37607
#       55959
#       77652
#       97909
#
# Disc length: 1561 seconds
#
# Revision: 1
# Processed by: cddbd v1.4PL0 Copyright (c) Steve Scherf et al.
# Submitted via: MusiCat 1.1
#
DISCID=37061706
DTITLE=Miro - La voix du vaurien
DYEAR=1900
DGENRE=
TTITLE0=Billy le Funkyman
TTITLE1=Trop bon, trop con
TTITLE2=Droit de regard
TTITLE3=La voix du vaurien
TTITLE4=Parle Charles
TTITLE5=Réactions en chaîne
EXTD=0\n\n\n
EXTT0=
EXTT1=
EXTT2=
EXTT3=
EXTT4=
EXTT5=
PLAYORDER=
